<?xml version="1.0" encoding="UTF-8"?>
<svg id="a" data-name="Layer 1" xmlns="http://www.w3.org/2000/svg" viewBox="0 0 1024 1024">
  <path d="m181.1,659c10.9,6,20.3,11.8,30.2,16.6,38.4,18.4,79.4,28,121.1,35.4,70.7,12.5,142,16.8,213.6,14.3,79.9-2.8,159.4-10.5,235.5-37.1,20.8-7.3,40.4-17.7,61.2-27,0,1.6.4,4.7.4,7.7,0,45.8-.3,91.7.4,137.5.2,13.2-5,22.2-14.6,29.9-17,13.6-36.7,21.8-57,28.8-42.6,14.6-86.7,22.8-131.4,28-49.3,5.8-98.7,8.7-148.3,7.4-74-1.8-147.5-8.2-219-28.8-25.8-7.5-51.1-16.3-73.3-32-12.8-9-19.6-19.8-19.1-36.7,1.2-44.4.5-88.9.5-133.4,0-3.1,0-6.3,0-10.5Z"/>
  <path d="m181.2,459.4c17.5,8.3,33.6,17.1,50.5,24,37,15.1,76,22.9,115.4,29.2,71.4,11.4,143.4,14.4,215.5,11.2,73.7-3.3,146.9-11.4,217.1-35.8,19.8-6.9,38.1-17.7,57.1-26.8,1.6-.8,3.2-1.7,6.1-3.2,0,4.1,0,6.9,0,9.8,0,45.6-.3,91.1.3,136.7.2,13.8-5.2,23.3-15.5,31.2-23.8,18.1-51.5,27.5-79.6,35.5-43.8,12.4-88.6,20.5-134,23-45.1,2.5-90.4,5.3-135.6,4.3-75.6-1.6-150.6-9.8-223-33.7-20.9-6.9-41.1-15.3-58.8-28.8-10.5-8-16.1-17.7-15.9-31.8.7-45.3.3-90.6.3-135.8,0-2.9,0-5.9,0-8.8Z"/>
  <path d="m842.8,256.4c0,4.8,0,7.7,0,10.6,0,45.3-.4,90.6.3,135.8.2,14.1-5.4,23.8-16,31.8-22.9,17.3-49.5,26.6-76.6,34.4-48.5,13.9-98.3,21.2-148.6,25.1-55.2,4.3-110.5,4.6-165.7,1.1-61.7-3.9-122.8-12.4-181.7-32.3-20.3-6.9-40.1-15-57.4-28.1-10.8-8.2-16.5-18-16.2-32.5.7-45,.3-90,.3-135,0-3,0-5.9,0-9.5,1.5.3,2.6.3,3.4.8,37.5,24.9,80,36.7,123.3,45.6,82.4,16.9,165.8,22,249.8,18.5,68.9-2.9,137.1-10.6,203.6-29.7,28.2-8.1,55.3-18.8,81.4-36.7Z"/>
  <path d="m530.4,296.7c-92.8-.9-166.9-6.2-239.7-24.4-28.7-7.2-56.9-15.9-82.4-31.4-7.1-4.3-13.8-9.7-19.6-15.6-10-10.2-9.7-21.2,0-31.7,12.5-13.4,28.6-21.2,45.2-28.1,36.7-15.3,75.2-23.9,114.3-30.3,66.6-10.9,133.7-13.6,201-11.5,74.9,2.3,149.1,10.3,220.8,34.1,19.8,6.6,39.1,14.5,56,27.3,1.1.8,2.2,1.6,3.2,2.5,18,15.2,17.9,29.3-.4,44.3-16.6,13.6-36.2,21.8-56.1,28.7-46.8,16.2-95.2,25.2-144.4,29.5-38.6,3.4-77.3,5.2-97.9,6.6Z"/>
</svg>